<?xml version="1.0" encoding="utf-8"?>
<!-- Generator: Adobe Illustrator 26.0.1, SVG Export Plug-In . SVG Version: 6.00 Build 0)  -->
<svg version="1.1" id="Layer_1" xmlns="http://www.w3.org/2000/svg" xmlns:xlink="http://www.w3.org/1999/xlink" x="0px" y="0px"
	 viewBox="0 0 360 360" style="enable-background:new 0 0 360 360;" xml:space="preserve">
<style type="text/css">
	.st0{fill:url(#SVGID_1_);}
	.st1{fill:#F89C1C;}
	.st2{fill:url(#SVGID_00000183944675425197758410000014026138859105390730_);}
	.st3{fill:url(#SVGID_00000078036424560225488550000010960987461857622970_);}
	.st4{fill:#F6931D;}
	.st5{fill:url(#SVGID_00000071536373638470140680000008139063898061888700_);}
	.st6{fill:url(#SVGID_00000167357693687381310610000009501282500621373078_);}
</style>
<g>
	<linearGradient id="SVGID_1_" gradientUnits="userSpaceOnUse" x1="18.4731" y1="118.0684" x2="162.9644" y2="219.6312">
		<stop  offset="0" style="stop-color:#28743A"/>
		<stop  offset="1" style="stop-color:#337D3D"/>
	</linearGradient>
	<path class="st0" d="M126.62,208.68c9.11-11.73,18.87-21.93,28.96-30.79c-40.71-25.41-82.37-31.59-99.8-33.08l-0.25,35.85
		c10.89,1.67,31.97,6.19,54.55,18.04C115.39,201.49,120.96,204.8,126.62,208.68z"/>
	<path class="st1" d="M207.91,225.56c-9.21-12.16-19.29-22.51-29.78-31.3c-10.8,8.81-21.21,19.24-30.73,31.57
		c10.89,10.7,21.19,24.02,29.47,40.64c2.97-5.58,6.46-11.38,10.54-17.2C192.8,241.55,199.56,233.38,207.91,225.56z"/>
	
		<linearGradient id="SVGID_00000047049796477753008600000011666557736401652908_" gradientUnits="userSpaceOnUse" x1="220.6022" y1="215.1351" x2="273.6522" y2="160.4564">
		<stop  offset="0" style="stop-color:#28743A"/>
		<stop  offset="1" style="stop-color:#337D3D"/>
	</linearGradient>
	<path style="fill:url(#SVGID_00000047049796477753008600000011666557736401652908_);" d="M304.7,146.3
		c-14.64,0.73-59.61,5.18-103.8,31.91c9.88,8.91,19.41,19.14,28.29,30.86c19.13-12.13,43.78-21.3,75.23-23.11L304.7,146.3z"/>
	
		<linearGradient id="SVGID_00000178919647612985218540000009312815769333406085_" gradientUnits="userSpaceOnUse" x1="298.6387" y1="318.5388" x2="234.0713" y2="243.152">
		<stop  offset="0.1902" style="stop-color:#28743A"/>
		<stop  offset="1" style="stop-color:#337D3D"/>
	</linearGradient>
	<path style="fill:url(#SVGID_00000178919647612985218540000009312815769333406085_);" d="M194,304.56l56,0.39
		c29.61,0.21,53.77-23.63,53.98-53.24l0.24-34.86C227.6,222.25,201.52,280.58,194,304.56z"/>
	<path class="st4" d="M304.95,110.01l-0.06,9.31c-11.13,0.4-38.42,2.47-70.68,13.56c-3.92,1.33-7.93,2.82-11.99,4.45
		c-2.57,1.01-5.16,2.11-7.76,3.25c-11.85,5.21-24.04,11.72-36.1,19.82c-10.87-7.52-21.87-13.71-32.63-18.83
		c-2.65-1.26-5.28-2.46-7.89-3.57c-4.08-1.77-8.11-3.37-12.07-4.85c-30.33-11.29-56.65-14.47-69.8-15.36l0.06-9.48
		c0.21-29.61,24.38-53.44,53.99-53.23l141.69,0.97C281.32,56.23,305.16,80.39,304.95,110.01z"/>
	
		<linearGradient id="SVGID_00000021804242758566533210000014106092289504384177_" gradientUnits="userSpaceOnUse" x1="1.2327" y1="362.5305" x2="120.5952" y2="244.5641">
		<stop  offset="0" style="stop-color:#28743A"/>
		<stop  offset="1" style="stop-color:#337D3D"/>
	</linearGradient>
	<path style="fill:url(#SVGID_00000021804242758566533210000014106092289504384177_);" d="M55.31,211.9l-0.26,38.09
		c-0.21,29.61,23.63,53.77,53.24,53.98l50.19,0.35C138.68,234.56,78.73,216.39,55.31,211.9z"/>
	
		<linearGradient id="SVGID_00000033343856513063521590000000971808863246803900_" gradientUnits="userSpaceOnUse" x1="178.7396" y1="55.2744" x2="181.0699" y2="199.7496">
		<stop  offset="0" style="stop-color:#FFC420"/>
		<stop  offset="1" style="stop-color:#F7981D"/>
	</linearGradient>
	<path style="fill:url(#SVGID_00000033343856513063521590000000971808863246803900_);" d="M234.21,132.88
		c-3.92,1.33-7.93,2.82-11.99,4.45c-2.57,1.01-5.16,2.11-7.76,3.25c-11.85,5.21-24.04,11.72-36.1,19.82
		c-10.87-7.52-21.87-13.71-32.63-18.83c-2.65-1.26-5.28-2.46-7.89-3.57c-4.08-1.77-8.11-3.37-12.07-4.85
		c2.37-27.9,25.72-49.78,54.23-49.78C208.39,83.36,231.72,105.11,234.21,132.88z"/>
</g>
</svg>
